# xmcd
#
# Track frame offsets:
#	180
#	15899
#	32463
#	54807
#	72448
#	89692
#	105506
#	125468
#	138787
#	154304
#	168590
#	179538
#	197114
#
# Disc length: 3081 seconds
#
# Revision: 3
# Processed by: cddbd v1.5.2PL0 Copyright (c) Steve Scherf et al.
# Submitted via: audiograbber 1.83.01
#
DISCID=a60c070d
DTITLE=Fink - Vogelbeobachtung im Winter
DYEAR=1997
DGENRE=Waterkantry
TTITLE0=Der richtige Ort
TTITLE1=Meine Braut
TTITLE2=Im Schatten
TTITLE3=Oklahoma
TTITLE4=Luisa
TTITLE5=Runter von meinem Pferd
TTITLE6=Vielleicht
TTITLE7=An meinem Platz
TTITLE8=Herz aus Holz
TTITLE9=Toter Mann
TTITLE10=Du kennst mich nicht
TTITLE11=Vogelbeobachtung im Winter
TTITLE12=Schlaf gut ein
EXTD=
EXTT0=
EXTT1=
EXTT2=
EXTT3=
EXTT4=
EXTT5=
EXTT6=
EXTT7=
EXTT8=
EXTT9=
EXTT10=
EXTT11=
EXTT12=
PLAYORDER=
